<svg width="180" height="84" viewBox="0 0 180 84" fill="none" xmlns="http://www.w3.org/2000/svg">
<path d="M10.9773 56.0682V71H2.64205V36.0909H10.7045V49.625H10.9943C11.5852 48.0114 12.5511 46.75 13.892 45.8409C15.2443 44.9318 16.8977 44.4773 18.8523 44.4773C20.6932 44.4773 22.2955 44.8864 23.6591 45.7045C25.0227 46.5114 26.0795 47.6534 26.8295 49.1307C27.5909 50.608 27.9659 52.3352 27.9545 54.3125V71H19.6193V55.9489C19.6307 54.4943 19.267 53.358 18.5284 52.5398C17.7898 51.7216 16.75 51.3125 15.4091 51.3125C14.5341 51.3125 13.7614 51.5057 13.0909 51.892C12.4318 52.267 11.9148 52.8068 11.5398 53.5114C11.1761 54.2159 10.9886 55.0682 10.9773 56.0682ZM40.5384 71.4432C38.8679 71.4432 37.3849 71.1648 36.0895 70.608C34.8054 70.0398 33.7884 69.1875 33.0384 68.0511C32.2997 66.9034 31.9304 65.4659 31.9304 63.7386C31.9304 62.2841 32.1861 61.0568 32.6974 60.0568C33.2088 59.0568 33.9134 58.2443 34.8111 57.6193C35.7088 56.9943 36.7429 56.5227 37.9134 56.2045C39.0838 55.875 40.3338 55.6534 41.6634 55.5398C43.152 55.4034 44.3509 55.2614 45.2599 55.1136C46.169 54.9545 46.8281 54.733 47.2372 54.4489C47.6577 54.1534 47.8679 53.7386 47.8679 53.2045V53.1193C47.8679 52.2443 47.5668 51.5682 46.9645 51.0909C46.3622 50.6136 45.5497 50.375 44.527 50.375C43.4247 50.375 42.5384 50.6136 41.8679 51.0909C41.1974 51.5682 40.7713 52.2273 40.5895 53.0682L32.902 52.7955C33.1293 51.2045 33.7145 49.7841 34.6577 48.5341C35.6122 47.2727 36.919 46.2841 38.5781 45.5682C40.2486 44.8409 42.2543 44.4773 44.5952 44.4773C46.2656 44.4773 47.8054 44.6761 49.2145 45.0739C50.6236 45.4602 51.8509 46.0284 52.8963 46.7784C53.9418 47.517 54.7486 48.4261 55.3168 49.5057C55.8963 50.5852 56.1861 51.8182 56.1861 53.2045V71H48.3452V67.3523H48.1406C47.6747 68.2386 47.0781 68.9886 46.3509 69.6023C45.6349 70.2159 44.7884 70.6761 43.8111 70.983C42.8452 71.2898 41.7543 71.4432 40.5384 71.4432ZM43.1122 65.9886C44.0099 65.9886 44.8168 65.8068 45.5327 65.4432C46.2599 65.0795 46.8395 64.5795 47.2713 63.9432C47.7031 63.2955 47.919 62.5455 47.919 61.6932V59.2045C47.6804 59.3295 47.3906 59.4432 47.0497 59.5455C46.7202 59.6477 46.3565 59.7443 45.9588 59.8352C45.5611 59.9261 45.152 60.0057 44.7315 60.0739C44.3111 60.142 43.9077 60.2045 43.5213 60.2614C42.7372 60.3864 42.0668 60.5795 41.5099 60.8409C40.9645 61.1023 40.544 61.4432 40.2486 61.8636C39.9645 62.2727 39.8224 62.7614 39.8224 63.3295C39.8224 64.1932 40.1293 64.8523 40.7429 65.3068C41.3679 65.7614 42.1577 65.9886 43.1122 65.9886ZM42.0043 41.4943L45.4474 33.8068H52.8281L47.6804 41.4943H42.0043ZM61.2827 71V36.0909H69.6179V49.3011H69.7884C70.1293 48.5057 70.6122 47.7386 71.2372 47C71.8736 46.2614 72.6804 45.6591 73.6577 45.1932C74.6463 44.7159 75.8281 44.4773 77.2031 44.4773C79.0213 44.4773 80.7202 44.9545 82.2997 45.9091C83.8906 46.8636 85.1747 48.3352 86.152 50.3239C87.1293 52.3125 87.6179 54.8466 87.6179 57.9261C87.6179 60.892 87.1463 63.375 86.2031 65.375C85.2713 67.375 84.0099 68.875 82.419 69.875C80.8395 70.875 79.0838 71.375 77.152 71.375C75.8338 71.375 74.6918 71.1591 73.7259 70.7273C72.7599 70.2955 71.9474 69.7273 71.2884 69.0227C70.6406 68.3182 70.1406 67.5625 69.7884 66.7557H69.5327V71H61.2827ZM69.4474 57.9091C69.4474 59.3182 69.6349 60.5455 70.0099 61.5909C70.3963 62.6364 70.9474 63.4489 71.6634 64.0284C72.3906 64.5966 73.2599 64.8807 74.2713 64.8807C75.294 64.8807 76.1634 64.5966 76.8793 64.0284C77.5952 63.4489 78.1349 62.6364 78.4986 61.5909C78.8736 60.5455 79.0611 59.3182 79.0611 57.9091C79.0611 56.5 78.8736 55.2784 78.4986 54.2443C78.1349 53.2102 77.5952 52.4091 76.8793 51.8409C76.1747 51.2727 75.3054 50.9886 74.2713 50.9886C73.2486 50.9886 72.3793 51.267 71.6634 51.8239C70.9474 52.3807 70.3963 53.1761 70.0099 54.2102C69.6349 55.2443 69.4474 56.4773 69.4474 57.9091ZM91.9858 71V44.8182H100.321V71H91.9858ZM96.1619 41.767C94.9915 41.767 93.9858 41.3807 93.1449 40.608C92.304 39.8239 91.8835 38.8807 91.8835 37.7784C91.8835 36.6875 92.304 35.7557 93.1449 34.983C93.9858 34.1989 94.9915 33.8068 96.1619 33.8068C97.3438 33.8068 98.3494 34.1989 99.179 34.983C100.02 35.7557 100.44 36.6875 100.44 37.7784C100.44 38.8807 100.02 39.8239 99.179 40.608C98.3494 41.3807 97.3438 41.767 96.1619 41.767ZM120.405 44.8182V50.9545H103.888V44.8182H120.405ZM107.348 38.5455H115.683V62.767C115.683 63.2784 115.763 63.6932 115.922 64.0114C116.092 64.3182 116.337 64.5398 116.655 64.6761C116.973 64.8011 117.354 64.8636 117.797 64.8636C118.115 64.8636 118.45 64.8352 118.803 64.7784C119.166 64.7102 119.439 64.6534 119.621 64.608L120.882 70.625C120.484 70.7386 119.922 70.8807 119.195 71.0511C118.479 71.2216 117.621 71.3295 116.621 71.375C114.666 71.4659 112.99 71.2386 111.592 70.6932C110.206 70.1364 109.143 69.2727 108.405 68.1023C107.678 66.9318 107.325 65.4602 107.348 63.6875V38.5455ZM136.598 71.4943C133.848 71.4943 131.484 70.9318 129.507 69.8068C127.541 68.6705 126.024 67.0909 124.956 65.0682C123.899 63.0341 123.371 60.6761 123.371 57.9943C123.371 55.3011 123.899 52.9432 124.956 50.9205C126.024 48.8864 127.541 47.3068 129.507 46.1818C131.484 45.0455 133.848 44.4773 136.598 44.4773C139.348 44.4773 141.706 45.0455 143.672 46.1818C145.649 47.3068 147.166 48.8864 148.223 50.9205C149.291 52.9432 149.825 55.3011 149.825 57.9943C149.825 60.6761 149.291 63.0341 148.223 65.0682C147.166 67.0909 145.649 68.6705 143.672 69.8068C141.706 70.9318 139.348 71.4943 136.598 71.4943ZM136.649 65.2045C137.649 65.2045 138.496 64.8977 139.189 64.2841C139.882 63.6705 140.411 62.8182 140.774 61.7273C141.149 60.6364 141.337 59.375 141.337 57.9432C141.337 56.4886 141.149 55.2159 140.774 54.125C140.411 53.0341 139.882 52.1818 139.189 51.5682C138.496 50.9545 137.649 50.6477 136.649 50.6477C135.615 50.6477 134.74 50.9545 134.024 51.5682C133.32 52.1818 132.78 53.0341 132.405 54.125C132.041 55.2159 131.859 56.4886 131.859 57.9432C131.859 59.375 132.041 60.6364 132.405 61.7273C132.78 62.8182 133.32 63.6705 134.024 64.2841C134.74 64.8977 135.615 65.2045 136.649 65.2045ZM176.953 52.8125L169.3 53.017C169.22 52.4716 169.004 51.9886 168.652 51.5682C168.3 51.1364 167.839 50.8011 167.271 50.5625C166.714 50.3125 166.067 50.1875 165.328 50.1875C164.362 50.1875 163.538 50.3807 162.857 50.767C162.186 51.1534 161.857 51.6761 161.868 52.3352C161.857 52.8466 162.061 53.2898 162.482 53.6648C162.913 54.0398 163.68 54.3409 164.783 54.5682L169.828 55.5227C172.442 56.0227 174.385 56.8523 175.658 58.0114C176.942 59.1705 177.589 60.7045 177.601 62.6136C177.589 64.4091 177.055 65.9716 175.999 67.3011C174.953 68.6307 173.521 69.6648 171.703 70.4034C169.885 71.1307 167.805 71.4943 165.464 71.4943C161.726 71.4943 158.777 70.7273 156.618 69.1932C154.47 67.6477 153.243 65.5795 152.936 62.9886L161.169 62.7841C161.351 63.7386 161.822 64.4659 162.584 64.9659C163.345 65.4659 164.317 65.7159 165.499 65.7159C166.567 65.7159 167.436 65.517 168.107 65.1193C168.777 64.7216 169.118 64.1932 169.129 63.5341C169.118 62.9432 168.857 62.4716 168.345 62.1193C167.834 61.7557 167.033 61.4716 165.942 61.267L161.374 60.3977C158.749 59.9205 156.794 59.0398 155.51 57.7557C154.226 56.4602 153.589 54.8125 153.601 52.8125C153.589 51.0625 154.055 49.5682 154.999 48.3295C155.942 47.0795 157.283 46.125 159.021 45.4659C160.76 44.8068 162.811 44.4773 165.175 44.4773C168.72 44.4773 171.516 45.2216 173.561 46.7102C175.607 48.1875 176.737 50.2216 176.953 52.8125Z" fill="white"/>
<rect x="0.5" y="0.5" width="15" height="15" rx="3.5" fill="#18181B" stroke="#27272A"/>
<rect x="20.5" y="0.5" width="15" height="15" rx="3.5" fill="#4C1D95" stroke="#6D28D9"/>
<rect x="40.5" y="0.5" width="15" height="15" rx="3.5" fill="#5B21B6" stroke="#7C3AED"/>
<rect x="60.5" y="0.5" width="15" height="15" rx="3.5" fill="#6D28D9" stroke="#8B5CF6"/>
<rect x="80.5" y="0.5" width="15" height="15" rx="3.5" fill="#7C3AED" stroke="#A78BFA"/>
<rect x="100.5" y="0.5" width="15" height="15" rx="3.5" fill="#8B5CF6" stroke="#C4B5FD"/>
</svg>
